<mxfile host="app.diagrams.net" modified="2023-11-20T18:47:05.704Z" agent="Mozilla/5.0 (Windows NT 10.0; Win64; x64) AppleWebKit/537.36 (KHTML, like Gecko) Chrome/119.0.0.0 Safari/537.36" version="22.1.3" etag="7TMaWO6XBfCkQGMEiHm9" type="github">
  <diagram name="Page-1" id="5LDLPTUqeHp88MghJBze">
    <mxGraphModel>
      <root>
        <mxCell id="0" />
        <mxCell id="1" parent="0" />
      </root>
    </mxGraphModel>
  </diagram>
</mxfile>
